<svg width="30" height="30" viewBox="0 0 30 30" fill="none" xmlns="http://www.w3.org/2000/svg">
<path fill-rule="evenodd" clip-rule="evenodd" d="M15.1163 4.11623C15.3507 3.88189 15.6686 3.75024 16 3.75024C16.3315 3.75024 16.6494 3.88189 16.8838 4.11623L24.3838 11.6162L26.8838 14.1162C27.1115 14.352 27.2375 14.6677 27.2346 14.9955C27.2318 15.3232 27.1003 15.6367 26.8685 15.8685C26.6368 16.1003 26.3233 16.2317 25.9955 16.2346C25.6678 16.2374 25.352 16.1114 25.1163 15.8837L24.75 15.5175V23.75C24.75 24.413 24.4866 25.0489 24.0178 25.5177C23.5489 25.9866 22.9131 26.25 22.25 26.25H18.5C18.1685 26.25 17.8506 26.1183 17.6161 25.8839C17.3817 25.6494 17.25 25.3315 17.25 25V21.25H14.75V25C14.75 25.3315 14.6183 25.6494 14.3839 25.8839C14.1495 26.1183 13.8315 26.25 13.5 26.25H9.75002C9.08698 26.25 8.45109 25.9866 7.98225 25.5177C7.51341 25.0489 7.25002 24.413 7.25002 23.75V15.5175L6.88377 15.8837C6.64802 16.1114 6.33226 16.2374 6.00452 16.2346C5.67677 16.2317 5.36326 16.1003 5.1315 15.8685C4.89974 15.6367 4.76828 15.3232 4.76543 14.9955C4.76258 14.6677 4.88857 14.352 5.11627 14.1162L7.61627 11.6162L15.1163 4.11623Z" fill="#96A7AF"/>
</svg>
